<?xml version="1.0" standalone="no"?>
<!DOCTYPE svg PUBLIC "-//W3C//DTD SVG 20010904//EN"
 "http://www.w3.org/TR/2001/REC-SVG-20010904/DTD/svg10.dtd">
<svg version="1.0" xmlns="http://www.w3.org/2000/svg"
 width="1024.000000pt" height="1024.000000pt" viewBox="0 0 1024.000000 1024.000000"
 preserveAspectRatio="xMidYMid meet">

<g transform="translate(0.000000,1024.000000) scale(0.100000,-0.100000)"
fill="#000000" stroke="none">
<path d="M0 5120 l0 -5120 5120 0 5120 0 0 5120 0 5120 -5120 0 -5120 0 0
-5120z m5430 3825 c122 -170 170 -229 202 -246 12 -6 33 -3 66 9 57 22 338
177 367 202 19 17 145 74 149 68 4 -4 -13 -156 -31 -283 -8 -60 -18 -136 -20
-168 l-5 -58 -827 3 -826 4 -6 44 c-4 25 -16 77 -27 115 -29 97 -93 358 -88
362 5 6 163 -84 301 -172 172 -109 241 -144 268 -137 12 3 43 27 68 53 52 54
213 271 249 337 13 23 27 41 31 40 4 -2 62 -79 129 -173z m-1313 -460 c33 -33
35 -39 30 -82 -7 -61 -41 -93 -99 -93 -32 0 -47 7 -74 34 -19 19 -34 44 -34
56 0 38 30 88 63 104 49 24 75 20 114 -19z m2523 20 c32 -16 60 -61 60 -94 0
-59 -49 -101 -119 -101 -31 0 -47 7 -75 34 -50 46 -50 94 -2 142 39 39 86 45
136 19z m420 0 c37 -19 50 -43 50 -94 0 -51 -42 -103 -83 -103 -37 0 -75 27
-94 67 -14 30 -15 38 -2 72 10 26 26 44 49 55 42 22 44 22 80 3z m-3375 -1
c24 -9 45 -58 45 -103 0 -32 -6 -44 -32 -66 -27 -23 -39 -26 -77 -22 -89 10
-119 89 -60 160 25 31 37 37 69 37 21 0 46 -3 55 -6z m2465 -289 l0 -75 -823
0 -823 0 4 63 c2 34 5 67 7 73 2 9 224 12 819 13 l816 2 0 -76z m1979 -1301
c-1 -499 -4 -902 -8 -897 -3 6 -17 16 -30 23 -40 21 -112 92 -130 130 -10 19
-26 60 -36 90 -10 30 -73 165 -141 300 -101 201 -137 261 -197 335 -113 138
-212 209 -387 278 -120 47 -206 58 -528 71 l-302 11 1 -670 c0 -368 0 -698 0
-733 l-1 -63 -87 3 -88 3 -7 783 c-4 430 -4 799 0 818 l7 36 305 -2 c168 0
359 -5 425 -10 236 -20 460 -100 607 -219 163 -131 239 -226 323 -405 49 -105
73 -138 76 -103 1 6 0 212 0 457 -1 266 2 458 8 478 9 31 8 32 -17 32 -15 0
-45 -5 -67 -11 -26 -6 -528 -9 -1459 -9 l-1419 1 -62 45 c-35 24 -103 64 -151
88 l-89 44 1728 2 1727 1 -1 -907z m-4109 886 c282 -34 520 -125 716 -275 165
-126 234 -200 338 -364 74 -116 118 -222 149 -355 17 -73 21 -125 21 -266 1
-159 -2 -186 -27 -292 -65 -268 -259 -527 -512 -685 -127 -79 -216 -119 -319
-144 -44 -11 -87 -22 -94 -24 -9 -3 -2 -20 21 -57 19 -29 58 -92 88 -139 30
-48 103 -165 163 -260 60 -96 170 -272 245 -392 75 -120 163 -262 197 -315
125 -199 212 -339 259 -417 27 -44 77 -122 112 -173 l64 -94 -38 -42 c-21 -23
-51 -61 -68 -84 -16 -23 -32 -42 -35 -42 -8 0 -70 97 -115 180 -22 41 -62 109
-88 150 -64 100 -141 223 -252 405 -50 83 -138 224 -195 315 -147 236 -353
569 -377 610 -11 19 -74 125 -139 235 -66 110 -120 203 -122 206 -2 4 19 10
45 13 116 17 296 77 424 141 86 44 217 132 271 183 69 64 161 197 214 307 55
115 83 243 90 420 5 117 3 140 -19 227 -94 359 -360 640 -737 776 -222 81
-345 92 -1025 92 l-539 0 66 -67 c42 -43 83 -98 110 -148 l43 -80 0 -1965 0
-1965 -47 -81 c-60 -102 -109 -151 -167 -168 -24 -7 -38 -14 -30 -17 8 -2 181
-3 385 -1 l372 3 -50 52 c-30 32 -70 91 -102 152 l-51 100 -1 1048 -1 1049 36
-6 c93 -16 333 -166 433 -270 43 -44 143 -198 228 -351 19 -33 62 -103 96
-156 34 -52 86 -138 114 -190 29 -52 69 -119 90 -149 20 -30 70 -113 110 -185
101 -178 310 -539 347 -600 17 -27 58 -97 92 -155 85 -145 129 -194 212 -236
38 -19 69 -39 69 -44 0 -6 6 -10 13 -10 22 0 12 -46 -18 -85 -27 -36 -30 -37
-74 -31 -26 3 -91 21 -145 39 l-99 32 -26 80 c-18 53 -59 131 -120 230 -132
211 -169 274 -249 410 -38 66 -93 158 -122 205 -29 47 -79 130 -110 185 -243
428 -523 858 -611 939 -34 32 -62 56 -64 54 -1 -2 -6 -384 -10 -850 -5 -643
-4 -860 5 -905 21 -100 87 -217 160 -280 53 -46 151 -92 204 -95 l46 -3 0 -71
0 -71 -172 -6 c-95 -3 -427 -6 -738 -5 l-565 0 0 84 0 84 30 2 c17 1 39 3 50
4 11 1 26 2 33 3 6 1 12 6 12 12 0 5 -5 7 -12 3 -6 -4 -8 -3 -5 3 12 19 46 22
59 4 11 -14 11 -14 -3 -4 -17 14 -29 8 -29 -14 0 -9 16 -13 55 -13 48 0 55 2
55 20 0 17 7 20 45 20 25 0 45 4 45 10 0 5 8 7 18 3 9 -3 14 -2 9 2 -4 5 -28
8 -52 6 -28 -1 -45 2 -45 9 0 6 6 8 13 4 6 -4 9 -3 4 1 -10 12 -57 13 -64 1
-3 -5 -1 -6 5 -2 7 4 12 3 12 -2 0 -5 -13 -9 -29 -9 l-30 0 43 33 c54 41 90
89 129 172 l32 67 3 1892 2 1893 -30 77 c-37 95 -104 186 -188 253 -56 44 -69
50 -110 50 l-47 0 -2 85 -3 85 768 0 c460 0 802 -4 852 -10z m1860 -1180 l0
-830 -83 0 -84 0 -6 107 c-4 58 -7 388 -7 733 l0 627 -42 -8 c-24 -4 -108 -8
-188 -9 l-145 0 -27 58 c-14 31 -36 72 -48 90 l-22 32 94 2 c51 0 174 2 273 4
143 2 258 11 283 23 1 0 2 -372 2 -829z m-2061 800 c258 -18 397 -63 550 -175
126 -93 232 -228 307 -389 170 -369 32 -851 -301 -1048 -230 -137 -475 -194
-795 -187 -152 4 -157 5 -223 37 -36 18 -73 40 -82 48 -13 14 -15 120 -15 873
l0 857 208 -3 c114 -2 272 -8 351 -13z m3369 -715 c139 -59 151 -220 24 -309
-34 -24 -53 -30 -95 -30 -99 0 -187 73 -187 156 0 77 44 147 115 179 49 23 94
24 143 4z m-498 -1129 c641 -1 1243 -3 1338 -4 l173 -2 -3 -81 -3 -81 -155 -1
c-372 -2 -2678 14 -2800 19 l-134 6 37 31 c21 16 49 51 61 76 l24 46 148 -3
c82 -2 673 -4 1314 -6z m198 -386 l1303 0 -2 -74 -2 -73 -1206 -4 c-1417 -5
-1850 -1 -1874 20 -12 10 -17 30 -17 72 0 58 0 58 33 63 17 2 129 2 247 0 118
-2 801 -4 1518 -4z m479 -371 c165 -22 306 -93 421 -211 63 -64 82 -91 127
-179 52 -102 68 -176 69 -319 0 -143 -20 -232 -81 -359 -69 -144 -234 -272
-408 -316 -144 -36 -331 -6 -465 76 -95 58 -109 71 -196 179 -212 262 -247
492 -116 760 73 148 203 269 354 330 41 16 103 33 139 38 35 5 67 10 71 11 4
0 42 -4 85 -10z m-1501 -61 c4 -4 8 -304 8 -665 l1 -658 -45 -84 c-28 -53 -66
-106 -102 -140 l-56 -56 369 0 c303 0 366 2 352 13 -93 67 -173 191 -192 297
-8 40 -11 271 -11 683 l1 622 92 0 92 0 0 -628 c0 -694 0 -689 66 -793 37 -58
123 -141 175 -167 49 -25 140 -52 148 -45 3 4 6 -30 6 -75 0 -68 -3 -81 -17
-86 -34 -10 -1463 -1 -1463 9 1 37 39 117 60 128 101 53 253 176 284 230 14
23 34 69 45 102 19 58 20 88 22 694 l2 633 77 -4 c43 -1 82 -6 86 -10z m-1984
-390 c24 -20 29 -56 17 -145 -22 -167 31 -428 114 -561 62 -99 146 -220 191
-275 44 -54 48 -79 6 -37 -12 12 -22 15 -26 9 -4 -8 -9 -7 -15 2 -7 11 -9 11
-9 1 0 -13 -40 -32 -77 -37 -14 -2 -20 1 -17 10 3 7 -2 15 -11 19 -9 3 -13 2
-10 -4 11 -18 -1 -11 -21 12 -17 19 -17 21 -1 15 11 -4 17 -1 17 9 0 10 -7 14
-21 12 -14 -2 -25 6 -37 27 -9 17 -21 33 -26 36 -5 4 -5 12 -2 18 4 6 3 10 -2
9 -6 -2 -10 0 -11 5 -1 4 -11 17 -22 28 -12 12 -38 58 -59 103 -91 196 -122
354 -100 505 30 200 70 280 122 239z m1549 -1654 c129 -39 215 -112 273 -234
29 -61 31 -72 31 -180 0 -107 -2 -119 -29 -175 -64 -129 -223 -236 -362 -243
-176 -9 -335 89 -409 251 -34 73 -42 125 -34 218 15 171 135 322 289 363 74
20 174 20 241 0z m2385 -253 c57 -35 77 -115 41 -161 -46 -59 -108 -65 -157
-15 -29 30 -34 42 -34 86 -1 45 3 54 32 80 38 34 74 37 118 10z m-4797 -7 c55
-39 58 -128 6 -180 -68 -68 -190 28 -155 120 25 66 98 96 149 60z m1679 -74
l-3 -65 -712 -3 -713 -2 0 52 c0 29 4 59 8 65 9 15 306 20 995 19 l428 -1 -3
-65z m2753 48 c12 -18 11 -79 -1 -98 -8 -13 -103 -15 -750 -16 l-740 0 0 69 0
70 741 -6 c607 -4 743 -7 750 -19z m-2785 -344 c14 -10 30 -28 35 -41 14 -38
11 -103 -5 -109 -8 -3 -59 1 -113 10 -54 8 -190 17 -303 20 -236 7 -342 15
-334 27 3 5 1 9 -4 9 -13 0 -35 54 -30 77 3 17 23 18 288 24 360 7 432 5 466
-17z m1967 18 c296 -8 287 -5 287 -74 0 -26 -6 -40 -19 -47 -10 -6 -174 -12
-392 -16 -205 -2 -411 -10 -457 -16 -66 -9 -86 -8 -98 2 -22 18 -11 62 26 109
25 32 38 40 73 43 69 6 295 6 580 -1z m-1258 -492 c72 -44 80 -133 19 -199
-28 -31 -39 -36 -76 -36 -100 0 -168 108 -123 195 30 59 118 78 180 40z"/>
<path d="M5250 8765 c-59 -87 -60 -109 -11 -142 55 -37 77 -39 121 -9 22 14
47 26 56 26 8 0 14 4 12 9 -8 23 -114 190 -120 191 -4 0 -30 -34 -58 -75z"/>
<path d="M4630 8671 c0 -22 40 -61 63 -61 25 0 21 33 -5 50 -42 28 -58 31 -58
11z"/>
<path d="M5963 8683 c-22 -4 -73 -49 -73 -64 0 -10 60 -22 91 -17 21 3 24 9
24 42 0 41 -5 46 -42 39z"/>
<path d="M2712 3325 c-17 -25 -27 -45 -22 -45 5 0 7 -7 4 -15 -4 -8 -1 -15 4
-15 6 0 18 -7 26 -16 15 -14 16 -11 16 30 0 25 -5 48 -10 51 -6 4 -4 12 5 21
13 14 20 34 12 34 -2 0 -17 -20 -35 -45z m18 -19 c0 -2 -7 -7 -16 -10 -8 -3
-12 -2 -9 4 6 10 25 14 25 6z"/>
<path d="M2656 3255 c-3 -8 -1 -15 4 -15 6 0 10 7 10 15 0 8 -2 15 -4 15 -2 0
-6 -7 -10 -15z"/>
<path d="M3442 7253 c10 -13 13 -153 14 -722 1 -388 2 -714 3 -724 1 -16 12
-17 144 -12 306 13 426 34 560 101 135 68 243 160 308 262 115 182 107 525
-18 720 -45 71 -150 176 -223 224 -78 51 -220 104 -324 123 -49 8 -161 18
-250 21 -89 3 -176 10 -194 14 -30 8 -32 7 -20 -7z m662 -567 c74 -31 95 -101
55 -184 -27 -55 -70 -82 -129 -82 -120 0 -197 114 -140 208 41 66 134 92 214
58z"/>
<path d="M7169 4646 c-126 -35 -250 -141 -315 -266 -35 -70 -38 -82 -42 -180
-8 -226 48 -337 261 -515 57 -48 116 -89 136 -95 93 -26 273 0 378 53 110 57
185 161 219 303 20 87 20 240 -1 318 -49 184 -220 347 -403 385 -68 14 -175
13 -233 -3z m214 -312 c75 -38 107 -88 107 -167 0 -40 -7 -69 -27 -107 -35
-67 -68 -92 -131 -98 -125 -12 -221 76 -222 203 0 64 24 111 78 152 38 29 51
33 103 33 35 0 73 -7 92 -16z"/>
<path d="M5241 2575 c-63 -18 -97 -41 -145 -97 -48 -56 -59 -95 -54 -192 7
-128 51 -192 176 -253 67 -33 126 -28 217 16 77 38 117 86 141 170 21 70 15
171 -14 226 -58 114 -189 167 -321 130z m155 -189 c25 -25 34 -43 34 -67 0
-35 -30 -94 -59 -116 -41 -32 -126 0 -156 58 -22 42 -12 90 26 129 25 25 39
30 76 30 38 0 50 -5 79 -34z"/>
</g>
</svg>
